vt 0 0
vt 1 0
vt 1 1
vt 0 1
usemtl top
v -64.0 128 64.0
v 64.0 128 64.0
v 64.0 128 -64.0
v -64.0 128 -64.0
f 1/1 2/2 3/3 4/4
usemtl bottom
v -64.0 0 -64.0
v 64.0 0 -64.0
v 64.0 0 64.0
v -64.0 0 64.0
f 5/1 6/2 7/3 8/4
usemtl side
v -64.0 0 64.0
v 64.0 0 64.0
v 64.0 128 64.0
v -64.0 128 64.0
f 9/1 10/2 11/3 12/4
usemtl side
v 64.0 0 64.0
v 64.0 0 -64.0
v 64.0 128 -64.0
v 64.0 128 64.0
f 13/1 14/2 15/3 16/4
usemtl side
v 64.0 0 -64.0
v -64.0 0 -64.0
v -64.0 128 -64.0
v 64.0 128 -64.0
f 17/1 18/2 19/3 20/4
usemtl side
v -64.0 0 -64.0
v -64.0 0 64.0
v -64.0 128 64.0
v -64.0 128 -64.0
f 21/1 22/2 23/3 24/4
