version 1
nodes
0 "root" -1
end
skeleton
time 0
0 0.0000 0.0000 0.0000 0 0 0
end
triangles
materials/mc/mob_wind_charge.vmat
0 -1.5000 -24.0000 24.0000 -1.0000 0.0000 0.0000 0.00000 1.00000
0 -1.5000 24.0000 24.0000 -1.0000 0.0000 0.0000 1.00000 1.00000
0 -1.5000 24.0000 -24.0000 -1.0000 0.0000 0.0000 1.00000 0.00000
materials/mc/mob_wind_charge.vmat
0 -1.5000 -24.0000 24.0000 -1.0000 0.0000 0.0000 0.00000 1.00000
0 -1.5000 24.0000 -24.0000 -1.0000 0.0000 0.0000 1.00000 0.00000
0 -1.5000 -24.0000 -24.0000 -1.0000 0.0000 0.0000 0.00000 0.00000
materials/mc/mob_wind_charge.vmat
0 1.5000 -24.0000 24.0000 -1.0000 0.0000 0.0000 0.00000 1.00000
0 1.5000 24.0000 24.0000 -1.0000 0.0000 0.0000 1.00000 1.00000
0 1.5000 24.0000 -24.0000 -1.0000 0.0000 0.0000 1.00000 0.00000
materials/mc/mob_wind_charge.vmat
0 1.5000 -24.0000 24.0000 -1.0000 0.0000 0.0000 0.00000 1.00000
0 1.5000 24.0000 -24.0000 -1.0000 0.0000 0.0000 1.00000 0.00000
0 1.5000 -24.0000 -24.0000 -1.0000 0.0000 0.0000 0.00000 0.00000
materials/mc/mob_wind_charge.vmat
0 -1.5000 -6.0000 15.0000 -0.0000 1.0000 0.0000 0.40625 0.78125
0 1.5000 -6.0000 15.0000 -0.0000 1.0000 0.0000 0.40625 0.78125
0 1.5000 -6.0000 12.0000 -0.0000 1.0000 0.0000 0.40625 0.78125
materials/mc/mob_wind_charge.vmat
0 -1.5000 -6.0000 15.0000 -0.0000 1.0000 0.0000 0.40625 0.78125
0 1.5000 -6.0000 12.0000 -0.0000 1.0000 0.0000 0.40625 0.78125
0 -1.5000 -6.0000 12.0000 -0.0000 1.0000 0.0000 0.40625 0.78125
materials/mc/mob_wind_charge.vmat
0 -1.5000 -6.0000 15.0000 0.0000 0.0000 -1.0000 0.40625 0.78125
0 -1.5000 -3.0000 15.0000 0.0000 0.0000 -1.0000 0.40625 0.78125
0 1.5000 -3.0000 15.0000 0.0000 0.0000 -1.0000 0.40625 0.78125
materials/mc/mob_wind_charge.vmat
0 -1.5000 -6.0000 15.0000 0.0000 0.0000 -1.0000 0.40625 0.78125
0 1.5000 -3.0000 15.0000 0.0000 0.0000 -1.0000 0.40625 0.78125
0 1.5000 -6.0000 15.0000 0.0000 0.0000 -1.0000 0.40625 0.78125
materials/mc/mob_wind_charge.vmat
0 -1.5000 -3.0000 15.0000 0.0000 0.0000 -1.0000 0.46875 0.78125
0 -1.5000 0.0000 15.0000 0.0000 0.0000 -1.0000 0.46875 0.78125
0 1.5000 0.0000 15.0000 0.0000 0.0000 -1.0000 0.46875 0.78125
materials/mc/mob_wind_charge.vmat
0 -1.5000 -3.0000 15.0000 0.0000 0.0000 -1.0000 0.46875 0.78125
0 1.5000 0.0000 15.0000 0.0000 0.0000 -1.0000 0.46875 0.78125
0 1.5000 -3.0000 15.0000 0.0000 0.0000 -1.0000 0.46875 0.78125
materials/mc/mob_wind_charge.vmat
0 -1.5000 0.0000 15.0000 0.0000 0.0000 -1.0000 0.53125 0.78125
0 -1.5000 3.0000 15.0000 0.0000 0.0000 -1.0000 0.53125 0.78125
0 1.5000 3.0000 15.0000 0.0000 0.0000 -1.0000 0.53125 0.78125
materials/mc/mob_wind_charge.vmat
0 -1.5000 0.0000 15.0000 0.0000 0.0000 -1.0000 0.53125 0.78125
0 1.5000 3.0000 15.0000 0.0000 0.0000 -1.0000 0.53125 0.78125
0 1.5000 0.0000 15.0000 0.0000 0.0000 -1.0000 0.53125 0.78125
materials/mc/mob_wind_charge.vmat
0 -1.5000 6.0000 15.0000 0.0000 -1.0000 0.0000 0.59375 0.78125
0 -1.5000 6.0000 12.0000 0.0000 -1.0000 0.0000 0.59375 0.78125
0 1.5000 6.0000 12.0000 0.0000 -1.0000 0.0000 0.59375 0.78125
materials/mc/mob_wind_charge.vmat
0 -1.5000 6.0000 15.0000 0.0000 -1.0000 0.0000 0.59375 0.78125
0 1.5000 6.0000 12.0000 0.0000 -1.0000 0.0000 0.59375 0.78125
0 1.5000 6.0000 15.0000 0.0000 -1.0000 0.0000 0.59375 0.78125
materials/mc/mob_wind_charge.vmat
0 -1.5000 3.0000 15.0000 0.0000 0.0000 -1.0000 0.59375 0.78125
0 -1.5000 6.0000 15.0000 0.0000 0.0000 -1.0000 0.59375 0.78125
0 1.5000 6.0000 15.0000 0.0000 0.0000 -1.0000 0.59375 0.78125
materials/mc/mob_wind_charge.vmat
0 -1.5000 3.0000 15.0000 0.0000 0.0000 -1.0000 0.59375 0.78125
0 1.5000 6.0000 15.0000 0.0000 0.0000 -1.0000 0.59375 0.78125
0 1.5000 3.0000 15.0000 0.0000 0.0000 -1.0000 0.59375 0.78125
materials/mc/mob_wind_charge.vmat
0 -1.5000 -12.0000 12.0000 -0.0000 1.0000 0.0000 0.28125 0.71875
0 1.5000 -12.0000 12.0000 -0.0000 1.0000 0.0000 0.28125 0.71875
0 1.5000 -12.0000 9.0000 -0.0000 1.0000 0.0000 0.28125 0.71875
materials/mc/mob_wind_charge.vmat
0 -1.5000 -12.0000 12.0000 -0.0000 1.0000 0.0000 0.28125 0.71875
0 1.5000 -12.0000 9.0000 -0.0000 1.0000 0.0000 0.28125 0.71875
0 -1.5000 -12.0000 9.0000 -0.0000 1.0000 0.0000 0.28125 0.71875
materials/mc/mob_wind_charge.vmat
0 -1.5000 -12.0000 12.0000 0.0000 0.0000 -1.0000 0.28125 0.71875
0 -1.5000 -9.0000 12.0000 0.0000 0.0000 -1.0000 0.28125 0.71875
0 1.5000 -9.0000 12.0000 0.0000 0.0000 -1.0000 0.28125 0.71875
materials/mc/mob_wind_charge.vmat
0 -1.5000 -12.0000 12.0000 0.0000 0.0000 -1.0000 0.28125 0.71875
0 1.5000 -9.0000 12.0000 0.0000 0.0000 -1.0000 0.28125 0.71875
0 1.5000 -12.0000 12.0000 0.0000 0.0000 -1.0000 0.28125 0.71875
materials/mc/mob_wind_charge.vmat
0 -1.5000 -9.0000 12.0000 0.0000 0.0000 -1.0000 0.34375 0.71875
0 -1.5000 -6.0000 12.0000 0.0000 0.0000 -1.0000 0.34375 0.71875
0 1.5000 -6.0000 12.0000 0.0000 0.0000 -1.0000 0.34375 0.71875
materials/mc/mob_wind_charge.vmat
0 -1.5000 -9.0000 12.0000 0.0000 0.0000 -1.0000 0.34375 0.71875
0 1.5000 -6.0000 12.0000 0.0000 0.0000 -1.0000 0.34375 0.71875
0 1.5000 -9.0000 12.0000 0.0000 0.0000 -1.0000 0.34375 0.71875
materials/mc/mob_wind_charge.vmat
0 -1.5000 9.0000 12.0000 0.0000 -1.0000 0.0000 0.65625 0.71875
0 -1.5000 9.0000 9.0000 0.0000 -1.0000 0.0000 0.65625 0.71875
0 1.5000 9.0000 9.0000 0.0000 -1.0000 0.0000 0.65625 0.71875
materials/mc/mob_wind_charge.vmat
0 -1.5000 9.0000 12.0000 0.0000 -1.0000 0.0000 0.65625 0.71875
0 1.5000 9.0000 9.0000 0.0000 -1.0000 0.0000 0.65625 0.71875
0 1.5000 9.0000 12.0000 0.0000 -1.0000 0.0000 0.65625 0.71875
materials/mc/mob_wind_charge.vmat
0 -1.5000 6.0000 12.0000 0.0000 0.0000 -1.0000 0.65625 0.71875
0 -1.5000 9.0000 12.0000 0.0000 0.0000 -1.0000 0.65625 0.71875
0 1.5000 9.0000 12.0000 0.0000 0.0000 -1.0000 0.65625 0.71875
materials/mc/mob_wind_charge.vmat
0 -1.5000 6.0000 12.0000 0.0000 0.0000 -1.0000 0.65625 0.71875
0 1.5000 9.0000 12.0000 0.0000 0.0000 -1.0000 0.65625 0.71875
0 1.5000 6.0000 12.0000 0.0000 0.0000 -1.0000 0.65625 0.71875
materials/mc/mob_wind_charge.vmat
0 -1.5000 -12.0000 9.0000 -0.0000 1.0000 0.0000 0.28125 0.65625
0 1.5000 -12.0000 9.0000 -0.0000 1.0000 0.0000 0.28125 0.65625
0 1.5000 -12.0000 6.0000 -0.0000 1.0000 0.0000 0.28125 0.65625
materials/mc/mob_wind_charge.vmat
0 -1.5000 -12.0000 9.0000 -0.0000 1.0000 0.0000 0.28125 0.65625
0 1.5000 -12.0000 6.0000 -0.0000 1.0000 0.0000 0.28125 0.65625
0 -1.5000 -12.0000 6.0000 -0.0000 1.0000 0.0000 0.28125 0.65625
materials/mc/mob_wind_charge.vmat
0 -1.5000 9.0000 9.0000 0.0000 0.0000 -1.0000 0.71875 0.65625
0 -1.5000 12.0000 9.0000 0.0000 0.0000 -1.0000 0.71875 0.65625
0 1.5000 12.0000 9.0000 0.0000 0.0000 -1.0000 0.71875 0.65625
materials/mc/mob_wind_charge.vmat
0 -1.5000 9.0000 9.0000 0.0000 0.0000 -1.0000 0.71875 0.65625
0 1.5000 12.0000 9.0000 0.0000 0.0000 -1.0000 0.71875 0.65625
0 1.5000 9.0000 9.0000 0.0000 0.0000 -1.0000 0.71875 0.65625
materials/mc/mob_wind_charge.vmat
0 -1.5000 15.0000 9.0000 0.0000 -1.0000 0.0000 0.78125 0.65625
0 -1.5000 15.0000 6.0000 0.0000 -1.0000 0.0000 0.78125 0.65625
0 1.5000 15.0000 6.0000 0.0000 -1.0000 0.0000 0.78125 0.65625
materials/mc/mob_wind_charge.vmat
0 -1.5000 15.0000 9.0000 0.0000 -1.0000 0.0000 0.78125 0.65625
0 1.5000 15.0000 6.0000 0.0000 -1.0000 0.0000 0.78125 0.65625
0 1.5000 15.0000 9.0000 0.0000 -1.0000 0.0000 0.78125 0.65625
materials/mc/mob_wind_charge.vmat
0 -1.5000 12.0000 9.0000 0.0000 0.0000 -1.0000 0.78125 0.65625
0 -1.5000 15.0000 9.0000 0.0000 0.0000 -1.0000 0.78125 0.65625
0 1.5000 15.0000 9.0000 0.0000 0.0000 -1.0000 0.78125 0.65625
materials/mc/mob_wind_charge.vmat
0 -1.5000 12.0000 9.0000 0.0000 0.0000 -1.0000 0.78125 0.65625
0 1.5000 15.0000 9.0000 0.0000 0.0000 -1.0000 0.78125 0.65625
0 1.5000 12.0000 9.0000 0.0000 0.0000 -1.0000 0.78125 0.65625
materials/mc/mob_wind_charge.vmat
0 -1.5000 -18.0000 6.0000 -0.0000 1.0000 0.0000 0.15625 0.59375
0 1.5000 -18.0000 6.0000 -0.0000 1.0000 0.0000 0.15625 0.59375
0 1.5000 -18.0000 3.0000 -0.0000 1.0000 0.0000 0.15625 0.59375
materials/mc/mob_wind_charge.vmat
0 -1.5000 -18.0000 6.0000 -0.0000 1.0000 0.0000 0.15625 0.59375
0 1.5000 -18.0000 3.0000 -0.0000 1.0000 0.0000 0.15625 0.59375
0 -1.5000 -18.0000 3.0000 -0.0000 1.0000 0.0000 0.15625 0.59375
materials/mc/mob_wind_charge.vmat
0 -1.5000 -18.0000 6.0000 0.0000 0.0000 -1.0000 0.15625 0.59375
0 -1.5000 -15.0000 6.0000 0.0000 0.0000 -1.0000 0.15625 0.59375
0 1.5000 -15.0000 6.0000 0.0000 0.0000 -1.0000 0.15625 0.59375
materials/mc/mob_wind_charge.vmat
0 -1.5000 -18.0000 6.0000 0.0000 0.0000 -1.0000 0.15625 0.59375
0 1.5000 -15.0000 6.0000 0.0000 0.0000 -1.0000 0.15625 0.59375
0 1.5000 -18.0000 6.0000 0.0000 0.0000 -1.0000 0.15625 0.59375
materials/mc/mob_wind_charge.vmat
0 -1.5000 -15.0000 6.0000 0.0000 0.0000 -1.0000 0.21875 0.59375
0 -1.5000 -12.0000 6.0000 0.0000 0.0000 -1.0000 0.21875 0.59375
0 1.5000 -12.0000 6.0000 0.0000 0.0000 -1.0000 0.21875 0.59375
materials/mc/mob_wind_charge.vmat
0 -1.5000 -15.0000 6.0000 0.0000 0.0000 -1.0000 0.21875 0.59375
0 1.5000 -12.0000 6.0000 0.0000 0.0000 -1.0000 0.21875 0.59375
0 1.5000 -15.0000 6.0000 0.0000 0.0000 -1.0000 0.21875 0.59375
materials/mc/mob_wind_charge.vmat
0 -1.5000 15.0000 6.0000 0.0000 -1.0000 0.0000 0.78125 0.59375
0 -1.5000 15.0000 3.0000 0.0000 -1.0000 0.0000 0.78125 0.59375
0 1.5000 15.0000 3.0000 0.0000 -1.0000 0.0000 0.78125 0.59375
materials/mc/mob_wind_charge.vmat
0 -1.5000 15.0000 6.0000 0.0000 -1.0000 0.0000 0.78125 0.59375
0 1.5000 15.0000 3.0000 0.0000 -1.0000 0.0000 0.78125 0.59375
0 1.5000 15.0000 6.0000 0.0000 -1.0000 0.0000 0.78125 0.59375
materials/mc/mob_wind_charge.vmat
0 -1.5000 -18.0000 3.0000 -0.0000 1.0000 0.0000 0.15625 0.53125
0 1.5000 -18.0000 3.0000 -0.0000 1.0000 0.0000 0.15625 0.53125
0 1.5000 -18.0000 0.0000 -0.0000 1.0000 0.0000 0.15625 0.53125
materials/mc/mob_wind_charge.vmat
0 -1.5000 -18.0000 3.0000 -0.0000 1.0000 0.0000 0.15625 0.53125
0 1.5000 -18.0000 0.0000 -0.0000 1.0000 0.0000 0.15625 0.53125
0 -1.5000 -18.0000 0.0000 -0.0000 1.0000 0.0000 0.15625 0.53125
materials/mc/mob_wind_charge.vmat
0 -1.5000 18.0000 3.0000 0.0000 -1.0000 0.0000 0.84375 0.53125
0 -1.5000 18.0000 0.0000 0.0000 -1.0000 0.0000 0.84375 0.53125
0 1.5000 18.0000 0.0000 0.0000 -1.0000 0.0000 0.84375 0.53125
materials/mc/mob_wind_charge.vmat
0 -1.5000 18.0000 3.0000 0.0000 -1.0000 0.0000 0.84375 0.53125
0 1.5000 18.0000 0.0000 0.0000 -1.0000 0.0000 0.84375 0.53125
0 1.5000 18.0000 3.0000 0.0000 -1.0000 0.0000 0.84375 0.53125
materials/mc/mob_wind_charge.vmat
0 -1.5000 15.0000 3.0000 0.0000 0.0000 -1.0000 0.84375 0.53125
0 -1.5000 18.0000 3.0000 0.0000 0.0000 -1.0000 0.84375 0.53125
0 1.5000 18.0000 3.0000 0.0000 0.0000 -1.0000 0.84375 0.53125
materials/mc/mob_wind_charge.vmat
0 -1.5000 15.0000 3.0000 0.0000 0.0000 -1.0000 0.84375 0.53125
0 1.5000 18.0000 3.0000 0.0000 0.0000 -1.0000 0.84375 0.53125
0 1.5000 15.0000 3.0000 0.0000 0.0000 -1.0000 0.84375 0.53125
materials/mc/mob_wind_charge.vmat
0 -1.5000 -18.0000 0.0000 -0.0000 1.0000 0.0000 0.15625 0.46875
0 1.5000 -18.0000 0.0000 -0.0000 1.0000 0.0000 0.15625 0.46875
0 1.5000 -18.0000 -3.0000 -0.0000 1.0000 0.0000 0.15625 0.46875
materials/mc/mob_wind_charge.vmat
0 -1.5000 -18.0000 0.0000 -0.0000 1.0000 0.0000 0.15625 0.46875
0 1.5000 -18.0000 -3.0000 -0.0000 1.0000 0.0000 0.15625 0.46875
0 -1.5000 -18.0000 -3.0000 -0.0000 1.0000 0.0000 0.15625 0.46875
materials/mc/mob_wind_charge.vmat
0 -1.5000 -18.0000 -3.0000 0.0000 0.0000 1.0000 0.15625 0.46875
0 1.5000 -18.0000 -3.0000 0.0000 0.0000 1.0000 0.15625 0.46875
0 1.5000 -15.0000 -3.0000 0.0000 0.0000 1.0000 0.15625 0.46875
materials/mc/mob_wind_charge.vmat
0 -1.5000 -18.0000 -3.0000 0.0000 0.0000 1.0000 0.15625 0.46875
0 1.5000 -15.0000 -3.0000 0.0000 0.0000 1.0000 0.15625 0.46875
0 -1.5000 -15.0000 -3.0000 0.0000 0.0000 1.0000 0.15625 0.46875
materials/mc/mob_wind_charge.vmat
0 -1.5000 18.0000 0.0000 0.0000 -1.0000 0.0000 0.84375 0.46875
0 -1.5000 18.0000 -3.0000 0.0000 -1.0000 0.0000 0.84375 0.46875
0 1.5000 18.0000 -3.0000 0.0000 -1.0000 0.0000 0.84375 0.46875
materials/mc/mob_wind_charge.vmat
0 -1.5000 18.0000 0.0000 0.0000 -1.0000 0.0000 0.84375 0.46875
0 1.5000 18.0000 -3.0000 0.0000 -1.0000 0.0000 0.84375 0.46875
0 1.5000 18.0000 0.0000 0.0000 -1.0000 0.0000 0.84375 0.46875
materials/mc/mob_wind_charge.vmat
0 -1.5000 15.0000 -3.0000 0.0000 0.0000 1.0000 0.84375 0.46875
0 1.5000 15.0000 -3.0000 0.0000 0.0000 1.0000 0.84375 0.46875
0 1.5000 18.0000 -3.0000 0.0000 0.0000 1.0000 0.84375 0.46875
materials/mc/mob_wind_charge.vmat
0 -1.5000 15.0000 -3.0000 0.0000 0.0000 1.0000 0.84375 0.46875
0 1.5000 18.0000 -3.0000 0.0000 0.0000 1.0000 0.84375 0.46875
0 -1.5000 18.0000 -3.0000 0.0000 0.0000 1.0000 0.84375 0.46875
materials/mc/mob_wind_charge.vmat
0 -1.5000 -15.0000 -3.0000 -0.0000 1.0000 0.0000 0.21875 0.40625
0 1.5000 -15.0000 -3.0000 -0.0000 1.0000 0.0000 0.21875 0.40625
0 1.5000 -15.0000 -6.0000 -0.0000 1.0000 0.0000 0.21875 0.40625
materials/mc/mob_wind_charge.vmat
0 -1.5000 -15.0000 -3.0000 -0.0000 1.0000 0.0000 0.21875 0.40625
0 1.5000 -15.0000 -6.0000 -0.0000 1.0000 0.0000 0.21875 0.40625
0 -1.5000 -15.0000 -6.0000 -0.0000 1.0000 0.0000 0.21875 0.40625
materials/mc/mob_wind_charge.vmat
0 -1.5000 -15.0000 -6.0000 0.0000 0.0000 1.0000 0.21875 0.40625
0 1.5000 -15.0000 -6.0000 0.0000 0.0000 1.0000 0.21875 0.40625
0 1.5000 -12.0000 -6.0000 0.0000 0.0000 1.0000 0.21875 0.40625
materials/mc/mob_wind_charge.vmat
0 -1.5000 -15.0000 -6.0000 0.0000 0.0000 1.0000 0.21875 0.40625
0 1.5000 -12.0000 -6.0000 0.0000 0.0000 1.0000 0.21875 0.40625
0 -1.5000 -12.0000 -6.0000 0.0000 0.0000 1.0000 0.21875 0.40625
materials/mc/mob_wind_charge.vmat
0 -1.5000 15.0000 -3.0000 0.0000 -1.0000 0.0000 0.78125 0.40625
0 -1.5000 15.0000 -6.0000 0.0000 -1.0000 0.0000 0.78125 0.40625
0 1.5000 15.0000 -6.0000 0.0000 -1.0000 0.0000 0.78125 0.40625
materials/mc/mob_wind_charge.vmat
0 -1.5000 15.0000 -3.0000 0.0000 -1.0000 0.0000 0.78125 0.40625
0 1.5000 15.0000 -6.0000 0.0000 -1.0000 0.0000 0.78125 0.40625
0 1.5000 15.0000 -3.0000 0.0000 -1.0000 0.0000 0.78125 0.40625
materials/mc/mob_wind_charge.vmat
0 -1.5000 12.0000 -6.0000 0.0000 0.0000 1.0000 0.78125 0.40625
0 1.5000 12.0000 -6.0000 0.0000 0.0000 1.0000 0.78125 0.40625
0 1.5000 15.0000 -6.0000 0.0000 0.0000 1.0000 0.78125 0.40625
materials/mc/mob_wind_charge.vmat
0 -1.5000 12.0000 -6.0000 0.0000 0.0000 1.0000 0.78125 0.40625
0 1.5000 15.0000 -6.0000 0.0000 0.0000 1.0000 0.78125 0.40625
0 -1.5000 15.0000 -6.0000 0.0000 0.0000 1.0000 0.78125 0.40625
materials/mc/mob_wind_charge.vmat
0 -1.5000 -12.0000 -6.0000 -0.0000 1.0000 0.0000 0.28125 0.34375
0 1.5000 -12.0000 -6.0000 -0.0000 1.0000 0.0000 0.28125 0.34375
0 1.5000 -12.0000 -9.0000 -0.0000 1.0000 0.0000 0.28125 0.34375
materials/mc/mob_wind_charge.vmat
0 -1.5000 -12.0000 -6.0000 -0.0000 1.0000 0.0000 0.28125 0.34375
0 1.5000 -12.0000 -9.0000 -0.0000 1.0000 0.0000 0.28125 0.34375
0 -1.5000 -12.0000 -9.0000 -0.0000 1.0000 0.0000 0.28125 0.34375
materials/mc/mob_wind_charge.vmat
0 -1.5000 12.0000 -6.0000 0.0000 -1.0000 0.0000 0.71875 0.34375
0 -1.5000 12.0000 -9.0000 0.0000 -1.0000 0.0000 0.71875 0.34375
0 1.5000 12.0000 -9.0000 0.0000 -1.0000 0.0000 0.71875 0.34375
materials/mc/mob_wind_charge.vmat
0 -1.5000 12.0000 -6.0000 0.0000 -1.0000 0.0000 0.71875 0.34375
0 1.5000 12.0000 -9.0000 0.0000 -1.0000 0.0000 0.71875 0.34375
0 1.5000 12.0000 -6.0000 0.0000 -1.0000 0.0000 0.71875 0.34375
materials/mc/mob_wind_charge.vmat
0 -1.5000 9.0000 -9.0000 0.0000 0.0000 1.0000 0.71875 0.34375
0 1.5000 9.0000 -9.0000 0.0000 0.0000 1.0000 0.71875 0.34375
0 1.5000 12.0000 -9.0000 0.0000 0.0000 1.0000 0.71875 0.34375
materials/mc/mob_wind_charge.vmat
0 -1.5000 9.0000 -9.0000 0.0000 0.0000 1.0000 0.71875 0.34375
0 1.5000 12.0000 -9.0000 0.0000 0.0000 1.0000 0.71875 0.34375
0 -1.5000 12.0000 -9.0000 0.0000 0.0000 1.0000 0.71875 0.34375
materials/mc/mob_wind_charge.vmat
0 -1.5000 -12.0000 -9.0000 -0.0000 1.0000 0.0000 0.28125 0.28125
0 1.5000 -12.0000 -9.0000 -0.0000 1.0000 0.0000 0.28125 0.28125
0 1.5000 -12.0000 -12.0000 -0.0000 1.0000 0.0000 0.28125 0.28125
materials/mc/mob_wind_charge.vmat
0 -1.5000 -12.0000 -9.0000 -0.0000 1.0000 0.0000 0.28125 0.28125
0 1.5000 -12.0000 -12.0000 -0.0000 1.0000 0.0000 0.28125 0.28125
0 -1.5000 -12.0000 -12.0000 -0.0000 1.0000 0.0000 0.28125 0.28125
materials/mc/mob_wind_charge.vmat
0 -1.5000 -12.0000 -12.0000 0.0000 0.0000 1.0000 0.28125 0.28125
0 1.5000 -12.0000 -12.0000 0.0000 0.0000 1.0000 0.28125 0.28125
0 1.5000 -9.0000 -12.0000 0.0000 0.0000 1.0000 0.28125 0.28125
materials/mc/mob_wind_charge.vmat
0 -1.5000 -12.0000 -12.0000 0.0000 0.0000 1.0000 0.28125 0.28125
0 1.5000 -9.0000 -12.0000 0.0000 0.0000 1.0000 0.28125 0.28125
0 -1.5000 -9.0000 -12.0000 0.0000 0.0000 1.0000 0.28125 0.28125
materials/mc/mob_wind_charge.vmat
0 -1.5000 9.0000 -9.0000 0.0000 -1.0000 0.0000 0.65625 0.28125
0 -1.5000 9.0000 -12.0000 0.0000 -1.0000 0.0000 0.65625 0.28125
0 1.5000 9.0000 -12.0000 0.0000 -1.0000 0.0000 0.65625 0.28125
materials/mc/mob_wind_charge.vmat
0 -1.5000 9.0000 -9.0000 0.0000 -1.0000 0.0000 0.65625 0.28125
0 1.5000 9.0000 -12.0000 0.0000 -1.0000 0.0000 0.65625 0.28125
0 1.5000 9.0000 -9.0000 0.0000 -1.0000 0.0000 0.65625 0.28125
materials/mc/mob_wind_charge.vmat
0 -1.5000 6.0000 -12.0000 0.0000 0.0000 1.0000 0.65625 0.28125
0 1.5000 6.0000 -12.0000 0.0000 0.0000 1.0000 0.65625 0.28125
0 1.5000 9.0000 -12.0000 0.0000 0.0000 1.0000 0.65625 0.28125
materials/mc/mob_wind_charge.vmat
0 -1.5000 6.0000 -12.0000 0.0000 0.0000 1.0000 0.65625 0.28125
0 1.5000 9.0000 -12.0000 0.0000 0.0000 1.0000 0.65625 0.28125
0 -1.5000 9.0000 -12.0000 0.0000 0.0000 1.0000 0.65625 0.28125
materials/mc/mob_wind_charge.vmat
0 -1.5000 -9.0000 -12.0000 -0.0000 1.0000 0.0000 0.34375 0.21875
0 1.5000 -9.0000 -12.0000 -0.0000 1.0000 0.0000 0.34375 0.21875
0 1.5000 -9.0000 -15.0000 -0.0000 1.0000 0.0000 0.34375 0.21875
materials/mc/mob_wind_charge.vmat
0 -1.5000 -9.0000 -12.0000 -0.0000 1.0000 0.0000 0.34375 0.21875
0 1.5000 -9.0000 -15.0000 -0.0000 1.0000 0.0000 0.34375 0.21875
0 -1.5000 -9.0000 -15.0000 -0.0000 1.0000 0.0000 0.34375 0.21875
materials/mc/mob_wind_charge.vmat
0 -1.5000 -9.0000 -15.0000 0.0000 0.0000 1.0000 0.34375 0.21875
0 1.5000 -9.0000 -15.0000 0.0000 0.0000 1.0000 0.34375 0.21875
0 1.5000 -6.0000 -15.0000 0.0000 0.0000 1.0000 0.34375 0.21875
materials/mc/mob_wind_charge.vmat
0 -1.5000 -9.0000 -15.0000 0.0000 0.0000 1.0000 0.34375 0.21875
0 1.5000 -6.0000 -15.0000 0.0000 0.0000 1.0000 0.34375 0.21875
0 -1.5000 -6.0000 -15.0000 0.0000 0.0000 1.0000 0.34375 0.21875
materials/mc/mob_wind_charge.vmat
0 -1.5000 -6.0000 -15.0000 0.0000 0.0000 1.0000 0.40625 0.21875
0 1.5000 -6.0000 -15.0000 0.0000 0.0000 1.0000 0.40625 0.21875
0 1.5000 -3.0000 -15.0000 0.0000 0.0000 1.0000 0.40625 0.21875
materials/mc/mob_wind_charge.vmat
0 -1.5000 -6.0000 -15.0000 0.0000 0.0000 1.0000 0.40625 0.21875
0 1.5000 -3.0000 -15.0000 0.0000 0.0000 1.0000 0.40625 0.21875
0 -1.5000 -3.0000 -15.0000 0.0000 0.0000 1.0000 0.40625 0.21875
materials/mc/mob_wind_charge.vmat
0 -1.5000 -3.0000 -15.0000 0.0000 0.0000 1.0000 0.46875 0.21875
0 1.5000 -3.0000 -15.0000 0.0000 0.0000 1.0000 0.46875 0.21875
0 1.5000 0.0000 -15.0000 0.0000 0.0000 1.0000 0.46875 0.21875
materials/mc/mob_wind_charge.vmat
0 -1.5000 -3.0000 -15.0000 0.0000 0.0000 1.0000 0.46875 0.21875
0 1.5000 0.0000 -15.0000 0.0000 0.0000 1.0000 0.46875 0.21875
0 -1.5000 0.0000 -15.0000 0.0000 0.0000 1.0000 0.46875 0.21875
materials/mc/mob_wind_charge.vmat
0 -1.5000 0.0000 -15.0000 0.0000 0.0000 1.0000 0.53125 0.21875
0 1.5000 0.0000 -15.0000 0.0000 0.0000 1.0000 0.53125 0.21875
0 1.5000 3.0000 -15.0000 0.0000 0.0000 1.0000 0.53125 0.21875
materials/mc/mob_wind_charge.vmat
0 -1.5000 0.0000 -15.0000 0.0000 0.0000 1.0000 0.53125 0.21875
0 1.5000 3.0000 -15.0000 0.0000 0.0000 1.0000 0.53125 0.21875
0 -1.5000 3.0000 -15.0000 0.0000 0.0000 1.0000 0.53125 0.21875
materials/mc/mob_wind_charge.vmat
0 -1.5000 6.0000 -12.0000 0.0000 -1.0000 0.0000 0.59375 0.21875
0 -1.5000 6.0000 -15.0000 0.0000 -1.0000 0.0000 0.59375 0.21875
0 1.5000 6.0000 -15.0000 0.0000 -1.0000 0.0000 0.59375 0.21875
materials/mc/mob_wind_charge.vmat
0 -1.5000 6.0000 -12.0000 0.0000 -1.0000 0.0000 0.59375 0.21875
0 1.5000 6.0000 -15.0000 0.0000 -1.0000 0.0000 0.59375 0.21875
0 1.5000 6.0000 -12.0000 0.0000 -1.0000 0.0000 0.59375 0.21875
materials/mc/mob_wind_charge.vmat
0 -1.5000 3.0000 -15.0000 0.0000 0.0000 1.0000 0.59375 0.21875
0 1.5000 3.0000 -15.0000 0.0000 0.0000 1.0000 0.59375 0.21875
0 1.5000 6.0000 -15.0000 0.0000 0.0000 1.0000 0.59375 0.21875
materials/mc/mob_wind_charge.vmat
0 -1.5000 3.0000 -15.0000 0.0000 0.0000 1.0000 0.59375 0.21875
0 1.5000 6.0000 -15.0000 0.0000 0.0000 1.0000 0.59375 0.21875
0 -1.5000 6.0000 -15.0000 0.0000 0.0000 1.0000 0.59375 0.21875
end
