version 1
nodes
0 "root" -1
end
skeleton
time 0
0 0.0000 0.0000 0.0000 0 0 0
end
triangles
materials/mc/mob_arrow.vmat
0 -1.5000 -0.0000 -33.9411 -1.0000 0.0000 0.0000 0.00000 1.00000
0 -1.5000 -33.9411 0.0000 -1.0000 0.0000 0.0000 1.00000 1.00000
0 -1.5000 0.0000 33.9411 -1.0000 0.0000 0.0000 1.00000 0.00000
materials/mc/mob_arrow.vmat
0 -1.5000 -0.0000 -33.9411 -1.0000 0.0000 0.0000 0.00000 1.00000
0 -1.5000 0.0000 33.9411 -1.0000 0.0000 0.0000 1.00000 0.00000
0 -1.5000 33.9411 0.0000 -1.0000 0.0000 0.0000 0.00000 0.00000
materials/mc/mob_arrow.vmat
0 1.5000 -0.0000 -33.9411 -1.0000 0.0000 0.0000 0.00000 1.00000
0 1.5000 -33.9411 0.0000 -1.0000 0.0000 0.0000 1.00000 1.00000
0 1.5000 0.0000 33.9411 -1.0000 0.0000 0.0000 1.00000 0.00000
materials/mc/mob_arrow.vmat
0 1.5000 -0.0000 -33.9411 -1.0000 0.0000 0.0000 0.00000 1.00000
0 1.5000 0.0000 33.9411 -1.0000 0.0000 0.0000 1.00000 0.00000
0 1.5000 33.9411 0.0000 -1.0000 0.0000 0.0000 0.00000 0.00000
materials/mc/mob_arrow.vmat
0 -1.5000 -21.2132 -4.2426 0.0000 -0.7071 0.7071 0.78125 0.84375
0 1.5000 -21.2132 -4.2426 0.0000 -0.7071 0.7071 0.78125 0.84375
0 1.5000 -19.0919 -2.1213 0.0000 -0.7071 0.7071 0.78125 0.84375
materials/mc/mob_arrow.vmat
0 -1.5000 -21.2132 -4.2426 0.0000 -0.7071 0.7071 0.78125 0.84375
0 1.5000 -19.0919 -2.1213 0.0000 -0.7071 0.7071 0.78125 0.84375
0 -1.5000 -19.0919 -2.1213 0.0000 -0.7071 0.7071 0.78125 0.84375
materials/mc/mob_arrow.vmat
0 -1.5000 -21.2132 -4.2426 0.0000 0.7071 0.7071 0.78125 0.84375
0 -1.5000 -23.3345 -2.1213 0.0000 0.7071 0.7071 0.78125 0.84375
0 1.5000 -23.3345 -2.1213 0.0000 0.7071 0.7071 0.78125 0.84375
materials/mc/mob_arrow.vmat
0 -1.5000 -21.2132 -4.2426 0.0000 0.7071 0.7071 0.78125 0.84375
0 1.5000 -23.3345 -2.1213 0.0000 0.7071 0.7071 0.78125 0.84375
0 1.5000 -21.2132 -4.2426 0.0000 0.7071 0.7071 0.78125 0.84375
materials/mc/mob_arrow.vmat
0 -1.5000 -23.3345 -2.1213 0.0000 0.7071 0.7071 0.84375 0.84375
0 -1.5000 -25.4558 0.0000 0.0000 0.7071 0.7071 0.84375 0.84375
0 1.5000 -25.4558 0.0000 0.0000 0.7071 0.7071 0.84375 0.84375
materials/mc/mob_arrow.vmat
0 -1.5000 -23.3345 -2.1213 0.0000 0.7071 0.7071 0.84375 0.84375
0 1.5000 -25.4558 0.0000 0.0000 0.7071 0.7071 0.84375 0.84375
0 1.5000 -23.3345 -2.1213 0.0000 0.7071 0.7071 0.84375 0.84375
materials/mc/mob_arrow.vmat
0 -1.5000 -27.5772 2.1213 0.0000 0.7071 -0.7071 0.90625 0.84375
0 -1.5000 -25.4558 4.2426 0.0000 0.7071 -0.7071 0.90625 0.84375
0 1.5000 -25.4558 4.2426 0.0000 0.7071 -0.7071 0.90625 0.84375
materials/mc/mob_arrow.vmat
0 -1.5000 -27.5772 2.1213 0.0000 0.7071 -0.7071 0.90625 0.84375
0 1.5000 -25.4558 4.2426 0.0000 0.7071 -0.7071 0.90625 0.84375
0 1.5000 -27.5772 2.1213 0.0000 0.7071 -0.7071 0.90625 0.84375
materials/mc/mob_arrow.vmat
0 -1.5000 -25.4558 0.0000 0.0000 0.7071 0.7071 0.90625 0.84375
0 -1.5000 -27.5772 2.1213 0.0000 0.7071 0.7071 0.90625 0.84375
0 1.5000 -27.5772 2.1213 0.0000 0.7071 0.7071 0.90625 0.84375
materials/mc/mob_arrow.vmat
0 -1.5000 -25.4558 0.0000 0.0000 0.7071 0.7071 0.90625 0.84375
0 1.5000 -27.5772 2.1213 0.0000 0.7071 0.7071 0.90625 0.84375
0 1.5000 -25.4558 0.0000 0.0000 0.7071 0.7071 0.90625 0.84375
materials/mc/mob_arrow.vmat
0 -1.5000 -14.8492 -6.3640 0.0000 -0.7071 0.7071 0.65625 0.78125
0 1.5000 -14.8492 -6.3640 0.0000 -0.7071 0.7071 0.65625 0.78125
0 1.5000 -12.7279 -4.2426 0.0000 -0.7071 0.7071 0.65625 0.78125
materials/mc/mob_arrow.vmat
0 -1.5000 -14.8492 -6.3640 0.0000 -0.7071 0.7071 0.65625 0.78125
0 1.5000 -12.7279 -4.2426 0.0000 -0.7071 0.7071 0.65625 0.78125
0 -1.5000 -12.7279 -4.2426 0.0000 -0.7071 0.7071 0.65625 0.78125
materials/mc/mob_arrow.vmat
0 -1.5000 -14.8492 -6.3640 0.0000 0.7071 0.7071 0.65625 0.78125
0 -1.5000 -16.9706 -4.2426 0.0000 0.7071 0.7071 0.65625 0.78125
0 1.5000 -16.9706 -4.2426 0.0000 0.7071 0.7071 0.65625 0.78125
materials/mc/mob_arrow.vmat
0 -1.5000 -14.8492 -6.3640 0.0000 0.7071 0.7071 0.65625 0.78125
0 1.5000 -16.9706 -4.2426 0.0000 0.7071 0.7071 0.65625 0.78125
0 1.5000 -14.8492 -6.3640 0.0000 0.7071 0.7071 0.65625 0.78125
materials/mc/mob_arrow.vmat
0 -1.5000 -16.9706 -4.2426 0.0000 0.7071 0.7071 0.71875 0.78125
0 -1.5000 -19.0919 -2.1213 0.0000 0.7071 0.7071 0.71875 0.78125
0 1.5000 -19.0919 -2.1213 0.0000 0.7071 0.7071 0.71875 0.78125
materials/mc/mob_arrow.vmat
0 -1.5000 -16.9706 -4.2426 0.0000 0.7071 0.7071 0.71875 0.78125
0 1.5000 -19.0919 -2.1213 0.0000 0.7071 0.7071 0.71875 0.78125
0 1.5000 -16.9706 -4.2426 0.0000 0.7071 0.7071 0.71875 0.78125
materials/mc/mob_arrow.vmat
0 -1.5000 -25.4558 4.2426 0.0000 0.7071 -0.7071 0.90625 0.78125
0 -1.5000 -23.3345 6.3640 0.0000 0.7071 -0.7071 0.90625 0.78125
0 1.5000 -23.3345 6.3640 0.0000 0.7071 -0.7071 0.90625 0.78125
materials/mc/mob_arrow.vmat
0 -1.5000 -25.4558 4.2426 0.0000 0.7071 -0.7071 0.90625 0.78125
0 1.5000 -23.3345 6.3640 0.0000 0.7071 -0.7071 0.90625 0.78125
0 1.5000 -25.4558 4.2426 0.0000 0.7071 -0.7071 0.90625 0.78125
materials/mc/mob_arrow.vmat
0 -1.5000 -21.2132 4.2426 0.0000 -0.7071 -0.7071 0.90625 0.78125
0 1.5000 -21.2132 4.2426 0.0000 -0.7071 -0.7071 0.90625 0.78125
0 1.5000 -23.3345 6.3640 0.0000 -0.7071 -0.7071 0.90625 0.78125
materials/mc/mob_arrow.vmat
0 -1.5000 -21.2132 4.2426 0.0000 -0.7071 -0.7071 0.90625 0.78125
0 1.5000 -23.3345 6.3640 0.0000 -0.7071 -0.7071 0.90625 0.78125
0 -1.5000 -23.3345 6.3640 0.0000 -0.7071 -0.7071 0.90625 0.78125
materials/mc/mob_arrow.vmat
0 -1.5000 -12.7279 -4.2426 0.0000 -0.7071 0.7071 0.65625 0.71875
0 1.5000 -12.7279 -4.2426 0.0000 -0.7071 0.7071 0.65625 0.71875
0 1.5000 -10.6066 -2.1213 0.0000 -0.7071 0.7071 0.65625 0.71875
materials/mc/mob_arrow.vmat
0 -1.5000 -12.7279 -4.2426 0.0000 -0.7071 0.7071 0.65625 0.71875
0 1.5000 -10.6066 -2.1213 0.0000 -0.7071 0.7071 0.65625 0.71875
0 -1.5000 -10.6066 -2.1213 0.0000 -0.7071 0.7071 0.65625 0.71875
materials/mc/mob_arrow.vmat
0 -1.5000 -21.2132 4.2426 0.0000 0.7071 -0.7071 0.84375 0.71875
0 -1.5000 -19.0919 6.3640 0.0000 0.7071 -0.7071 0.84375 0.71875
0 1.5000 -19.0919 6.3640 0.0000 0.7071 -0.7071 0.84375 0.71875
materials/mc/mob_arrow.vmat
0 -1.5000 -21.2132 4.2426 0.0000 0.7071 -0.7071 0.84375 0.71875
0 1.5000 -19.0919 6.3640 0.0000 0.7071 -0.7071 0.84375 0.71875
0 1.5000 -21.2132 4.2426 0.0000 0.7071 -0.7071 0.84375 0.71875
materials/mc/mob_arrow.vmat
0 -1.5000 -10.6066 -2.1213 0.0000 -0.7071 0.7071 0.65625 0.65625
0 1.5000 -10.6066 -2.1213 0.0000 -0.7071 0.7071 0.65625 0.65625
0 1.5000 -8.4853 0.0000 0.0000 -0.7071 0.7071 0.65625 0.65625
materials/mc/mob_arrow.vmat
0 -1.5000 -10.6066 -2.1213 0.0000 -0.7071 0.7071 0.65625 0.65625
0 1.5000 -8.4853 0.0000 0.0000 -0.7071 0.7071 0.65625 0.65625
0 -1.5000 -8.4853 0.0000 0.0000 -0.7071 0.7071 0.65625 0.65625
materials/mc/mob_arrow.vmat
0 -1.5000 -10.6066 2.1213 0.0000 -0.7071 -0.7071 0.71875 0.65625
0 1.5000 -10.6066 2.1213 0.0000 -0.7071 -0.7071 0.71875 0.65625
0 1.5000 -12.7279 4.2426 0.0000 -0.7071 -0.7071 0.71875 0.65625
materials/mc/mob_arrow.vmat
0 -1.5000 -10.6066 2.1213 0.0000 -0.7071 -0.7071 0.71875 0.65625
0 1.5000 -12.7279 4.2426 0.0000 -0.7071 -0.7071 0.71875 0.65625
0 -1.5000 -12.7279 4.2426 0.0000 -0.7071 -0.7071 0.71875 0.65625
materials/mc/mob_arrow.vmat
0 -1.5000 -19.0919 6.3640 0.0000 0.7071 -0.7071 0.84375 0.65625
0 -1.5000 -16.9706 8.4853 0.0000 0.7071 -0.7071 0.84375 0.65625
0 1.5000 -16.9706 8.4853 0.0000 0.7071 -0.7071 0.84375 0.65625
materials/mc/mob_arrow.vmat
0 -1.5000 -19.0919 6.3640 0.0000 0.7071 -0.7071 0.84375 0.65625
0 1.5000 -16.9706 8.4853 0.0000 0.7071 -0.7071 0.84375 0.65625
0 1.5000 -19.0919 6.3640 0.0000 0.7071 -0.7071 0.84375 0.65625
materials/mc/mob_arrow.vmat
0 -1.5000 -14.8492 6.3640 0.0000 -0.7071 -0.7071 0.84375 0.65625
0 1.5000 -14.8492 6.3640 0.0000 -0.7071 -0.7071 0.84375 0.65625
0 1.5000 -16.9706 8.4853 0.0000 -0.7071 -0.7071 0.84375 0.65625
materials/mc/mob_arrow.vmat
0 -1.5000 -14.8492 6.3640 0.0000 -0.7071 -0.7071 0.84375 0.65625
0 1.5000 -16.9706 8.4853 0.0000 -0.7071 -0.7071 0.84375 0.65625
0 -1.5000 -16.9706 8.4853 0.0000 -0.7071 -0.7071 0.84375 0.65625
materials/mc/mob_arrow.vmat
0 -1.5000 -6.3640 -2.1213 0.0000 -0.7071 0.7071 0.59375 0.59375
0 1.5000 -6.3640 -2.1213 0.0000 -0.7071 0.7071 0.59375 0.59375
0 1.5000 -4.2426 0.0000 0.0000 -0.7071 0.7071 0.59375 0.59375
materials/mc/mob_arrow.vmat
0 -1.5000 -6.3640 -2.1213 0.0000 -0.7071 0.7071 0.59375 0.59375
0 1.5000 -4.2426 0.0000 0.0000 -0.7071 0.7071 0.59375 0.59375
0 -1.5000 -4.2426 0.0000 0.0000 -0.7071 0.7071 0.59375 0.59375
materials/mc/mob_arrow.vmat
0 -1.5000 -6.3640 -2.1213 0.0000 0.7071 0.7071 0.59375 0.59375
0 -1.5000 -8.4853 0.0000 0.0000 0.7071 0.7071 0.59375 0.59375
0 1.5000 -8.4853 0.0000 0.0000 0.7071 0.7071 0.59375 0.59375
materials/mc/mob_arrow.vmat
0 -1.5000 -6.3640 -2.1213 0.0000 0.7071 0.7071 0.59375 0.59375
0 1.5000 -8.4853 0.0000 0.0000 0.7071 0.7071 0.59375 0.59375
0 1.5000 -6.3640 -2.1213 0.0000 0.7071 0.7071 0.59375 0.59375
materials/mc/mob_arrow.vmat
0 -1.5000 -10.6066 2.1213 0.0000 0.7071 -0.7071 0.65625 0.59375
0 -1.5000 -8.4853 4.2426 0.0000 0.7071 -0.7071 0.65625 0.59375
0 1.5000 -8.4853 4.2426 0.0000 0.7071 -0.7071 0.65625 0.59375
materials/mc/mob_arrow.vmat
0 -1.5000 -10.6066 2.1213 0.0000 0.7071 -0.7071 0.65625 0.59375
0 1.5000 -8.4853 4.2426 0.0000 0.7071 -0.7071 0.65625 0.59375
0 1.5000 -10.6066 2.1213 0.0000 0.7071 -0.7071 0.65625 0.59375
materials/mc/mob_arrow.vmat
0 -1.5000 -6.3640 2.1213 0.0000 -0.7071 -0.7071 0.65625 0.59375
0 1.5000 -6.3640 2.1213 0.0000 -0.7071 -0.7071 0.65625 0.59375
0 1.5000 -8.4853 4.2426 0.0000 -0.7071 -0.7071 0.65625 0.59375
materials/mc/mob_arrow.vmat
0 -1.5000 -6.3640 2.1213 0.0000 -0.7071 -0.7071 0.65625 0.59375
0 1.5000 -8.4853 4.2426 0.0000 -0.7071 -0.7071 0.65625 0.59375
0 -1.5000 -8.4853 4.2426 0.0000 -0.7071 -0.7071 0.65625 0.59375
materials/mc/mob_arrow.vmat
0 -1.5000 -12.7279 4.2426 0.0000 -0.7071 0.7071 0.78125 0.59375
0 1.5000 -12.7279 4.2426 0.0000 -0.7071 0.7071 0.78125 0.59375
0 1.5000 -10.6066 6.3640 0.0000 -0.7071 0.7071 0.78125 0.59375
materials/mc/mob_arrow.vmat
0 -1.5000 -12.7279 4.2426 0.0000 -0.7071 0.7071 0.78125 0.59375
0 1.5000 -10.6066 6.3640 0.0000 -0.7071 0.7071 0.78125 0.59375
0 -1.5000 -10.6066 6.3640 0.0000 -0.7071 0.7071 0.78125 0.59375
materials/mc/mob_arrow.vmat
0 -1.5000 -14.8492 6.3640 0.0000 0.7071 -0.7071 0.78125 0.59375
0 -1.5000 -12.7279 8.4853 0.0000 0.7071 -0.7071 0.78125 0.59375
0 1.5000 -12.7279 8.4853 0.0000 0.7071 -0.7071 0.78125 0.59375
materials/mc/mob_arrow.vmat
0 -1.5000 -14.8492 6.3640 0.0000 0.7071 -0.7071 0.78125 0.59375
0 1.5000 -12.7279 8.4853 0.0000 0.7071 -0.7071 0.78125 0.59375
0 1.5000 -14.8492 6.3640 0.0000 0.7071 -0.7071 0.78125 0.59375
materials/mc/mob_arrow.vmat
0 -1.5000 -10.6066 6.3640 0.0000 -0.7071 -0.7071 0.78125 0.59375
0 1.5000 -10.6066 6.3640 0.0000 -0.7071 -0.7071 0.78125 0.59375
0 1.5000 -12.7279 8.4853 0.0000 -0.7071 -0.7071 0.78125 0.59375
materials/mc/mob_arrow.vmat
0 -1.5000 -10.6066 6.3640 0.0000 -0.7071 -0.7071 0.78125 0.59375
0 1.5000 -12.7279 8.4853 0.0000 -0.7071 -0.7071 0.78125 0.59375
0 -1.5000 -12.7279 8.4853 0.0000 -0.7071 -0.7071 0.78125 0.59375
materials/mc/mob_arrow.vmat
0 -1.5000 -2.1213 -2.1213 0.0000 -0.7071 0.7071 0.53125 0.53125
0 1.5000 -2.1213 -2.1213 0.0000 -0.7071 0.7071 0.53125 0.53125
0 1.5000 0.0000 0.0000 0.0000 -0.7071 0.7071 0.53125 0.53125
materials/mc/mob_arrow.vmat
0 -1.5000 -2.1213 -2.1213 0.0000 -0.7071 0.7071 0.53125 0.53125
0 1.5000 0.0000 0.0000 0.0000 -0.7071 0.7071 0.53125 0.53125
0 -1.5000 0.0000 0.0000 0.0000 -0.7071 0.7071 0.53125 0.53125
materials/mc/mob_arrow.vmat
0 -1.5000 -2.1213 -2.1213 0.0000 0.7071 0.7071 0.53125 0.53125
0 -1.5000 -4.2426 0.0000 0.0000 0.7071 0.7071 0.53125 0.53125
0 1.5000 -4.2426 0.0000 0.0000 0.7071 0.7071 0.53125 0.53125
materials/mc/mob_arrow.vmat
0 -1.5000 -2.1213 -2.1213 0.0000 0.7071 0.7071 0.53125 0.53125
0 1.5000 -4.2426 0.0000 0.0000 0.7071 0.7071 0.53125 0.53125
0 1.5000 -2.1213 -2.1213 0.0000 0.7071 0.7071 0.53125 0.53125
materials/mc/mob_arrow.vmat
0 -1.5000 -6.3640 2.1213 0.0000 0.7071 -0.7071 0.59375 0.53125
0 -1.5000 -4.2426 4.2426 0.0000 0.7071 -0.7071 0.59375 0.53125
0 1.5000 -4.2426 4.2426 0.0000 0.7071 -0.7071 0.59375 0.53125
materials/mc/mob_arrow.vmat
0 -1.5000 -6.3640 2.1213 0.0000 0.7071 -0.7071 0.59375 0.53125
0 1.5000 -4.2426 4.2426 0.0000 0.7071 -0.7071 0.59375 0.53125
0 1.5000 -6.3640 2.1213 0.0000 0.7071 -0.7071 0.59375 0.53125
materials/mc/mob_arrow.vmat
0 -1.5000 -2.1213 2.1213 0.0000 -0.7071 -0.7071 0.59375 0.53125
0 1.5000 -2.1213 2.1213 0.0000 -0.7071 -0.7071 0.59375 0.53125
0 1.5000 -4.2426 4.2426 0.0000 -0.7071 -0.7071 0.59375 0.53125
materials/mc/mob_arrow.vmat
0 -1.5000 -2.1213 2.1213 0.0000 -0.7071 -0.7071 0.59375 0.53125
0 1.5000 -4.2426 4.2426 0.0000 -0.7071 -0.7071 0.59375 0.53125
0 -1.5000 -4.2426 4.2426 0.0000 -0.7071 -0.7071 0.59375 0.53125
materials/mc/mob_arrow.vmat
0 -1.5000 2.1213 -2.1213 0.0000 -0.7071 0.7071 0.46875 0.46875
0 1.5000 2.1213 -2.1213 0.0000 -0.7071 0.7071 0.46875 0.46875
0 1.5000 4.2426 0.0000 0.0000 -0.7071 0.7071 0.46875 0.46875
materials/mc/mob_arrow.vmat
0 -1.5000 2.1213 -2.1213 0.0000 -0.7071 0.7071 0.46875 0.46875
0 1.5000 4.2426 0.0000 0.0000 -0.7071 0.7071 0.46875 0.46875
0 -1.5000 4.2426 0.0000 0.0000 -0.7071 0.7071 0.46875 0.46875
materials/mc/mob_arrow.vmat
0 -1.5000 2.1213 -2.1213 0.0000 0.7071 0.7071 0.46875 0.46875
0 -1.5000 0.0000 0.0000 0.0000 0.7071 0.7071 0.46875 0.46875
0 1.5000 0.0000 0.0000 0.0000 0.7071 0.7071 0.46875 0.46875
materials/mc/mob_arrow.vmat
0 -1.5000 2.1213 -2.1213 0.0000 0.7071 0.7071 0.46875 0.46875
0 1.5000 0.0000 0.0000 0.0000 0.7071 0.7071 0.46875 0.46875
0 1.5000 2.1213 -2.1213 0.0000 0.7071 0.7071 0.46875 0.46875
materials/mc/mob_arrow.vmat
0 -1.5000 -2.1213 2.1213 0.0000 0.7071 -0.7071 0.53125 0.46875
0 -1.5000 0.0000 4.2426 0.0000 0.7071 -0.7071 0.53125 0.46875
0 1.5000 0.0000 4.2426 0.0000 0.7071 -0.7071 0.53125 0.46875
materials/mc/mob_arrow.vmat
0 -1.5000 -2.1213 2.1213 0.0000 0.7071 -0.7071 0.53125 0.46875
0 1.5000 0.0000 4.2426 0.0000 0.7071 -0.7071 0.53125 0.46875
0 1.5000 -2.1213 2.1213 0.0000 0.7071 -0.7071 0.53125 0.46875
materials/mc/mob_arrow.vmat
0 -1.5000 2.1213 2.1213 0.0000 -0.7071 -0.7071 0.53125 0.46875
0 1.5000 2.1213 2.1213 0.0000 -0.7071 -0.7071 0.53125 0.46875
0 1.5000 0.0000 4.2426 0.0000 -0.7071 -0.7071 0.53125 0.46875
materials/mc/mob_arrow.vmat
0 -1.5000 2.1213 2.1213 0.0000 -0.7071 -0.7071 0.53125 0.46875
0 1.5000 0.0000 4.2426 0.0000 -0.7071 -0.7071 0.53125 0.46875
0 -1.5000 0.0000 4.2426 0.0000 -0.7071 -0.7071 0.53125 0.46875
materials/mc/mob_arrow.vmat
0 -1.5000 6.3640 -2.1213 0.0000 -0.7071 0.7071 0.40625 0.40625
0 1.5000 6.3640 -2.1213 0.0000 -0.7071 0.7071 0.40625 0.40625
0 1.5000 8.4853 0.0000 0.0000 -0.7071 0.7071 0.40625 0.40625
materials/mc/mob_arrow.vmat
0 -1.5000 6.3640 -2.1213 0.0000 -0.7071 0.7071 0.40625 0.40625
0 1.5000 8.4853 0.0000 0.0000 -0.7071 0.7071 0.40625 0.40625
0 -1.5000 8.4853 0.0000 0.0000 -0.7071 0.7071 0.40625 0.40625
materials/mc/mob_arrow.vmat
0 -1.5000 6.3640 -2.1213 0.0000 0.7071 0.7071 0.40625 0.40625
0 -1.5000 4.2426 0.0000 0.0000 0.7071 0.7071 0.40625 0.40625
0 1.5000 4.2426 0.0000 0.0000 0.7071 0.7071 0.40625 0.40625
materials/mc/mob_arrow.vmat
0 -1.5000 6.3640 -2.1213 0.0000 0.7071 0.7071 0.40625 0.40625
0 1.5000 4.2426 0.0000 0.0000 0.7071 0.7071 0.40625 0.40625
0 1.5000 6.3640 -2.1213 0.0000 0.7071 0.7071 0.40625 0.40625
materials/mc/mob_arrow.vmat
0 -1.5000 2.1213 2.1213 0.0000 0.7071 -0.7071 0.46875 0.40625
0 -1.5000 4.2426 4.2426 0.0000 0.7071 -0.7071 0.46875 0.40625
0 1.5000 4.2426 4.2426 0.0000 0.7071 -0.7071 0.46875 0.40625
materials/mc/mob_arrow.vmat
0 -1.5000 2.1213 2.1213 0.0000 0.7071 -0.7071 0.46875 0.40625
0 1.5000 4.2426 4.2426 0.0000 0.7071 -0.7071 0.46875 0.40625
0 1.5000 2.1213 2.1213 0.0000 0.7071 -0.7071 0.46875 0.40625
materials/mc/mob_arrow.vmat
0 -1.5000 6.3640 2.1213 0.0000 -0.7071 -0.7071 0.46875 0.40625
0 1.5000 6.3640 2.1213 0.0000 -0.7071 -0.7071 0.46875 0.40625
0 1.5000 4.2426 4.2426 0.0000 -0.7071 -0.7071 0.46875 0.40625
materials/mc/mob_arrow.vmat
0 -1.5000 6.3640 2.1213 0.0000 -0.7071 -0.7071 0.46875 0.40625
0 1.5000 4.2426 4.2426 0.0000 -0.7071 -0.7071 0.46875 0.40625
0 -1.5000 4.2426 4.2426 0.0000 -0.7071 -0.7071 0.46875 0.40625
materials/mc/mob_arrow.vmat
0 -1.5000 10.6066 -2.1213 0.0000 -0.7071 0.7071 0.34375 0.34375
0 1.5000 10.6066 -2.1213 0.0000 -0.7071 0.7071 0.34375 0.34375
0 1.5000 12.7279 0.0000 0.0000 -0.7071 0.7071 0.34375 0.34375
materials/mc/mob_arrow.vmat
0 -1.5000 10.6066 -2.1213 0.0000 -0.7071 0.7071 0.34375 0.34375
0 1.5000 12.7279 0.0000 0.0000 -0.7071 0.7071 0.34375 0.34375
0 -1.5000 12.7279 0.0000 0.0000 -0.7071 0.7071 0.34375 0.34375
materials/mc/mob_arrow.vmat
0 -1.5000 10.6066 -2.1213 0.0000 0.7071 0.7071 0.34375 0.34375
0 -1.5000 8.4853 0.0000 0.0000 0.7071 0.7071 0.34375 0.34375
0 1.5000 8.4853 0.0000 0.0000 0.7071 0.7071 0.34375 0.34375
materials/mc/mob_arrow.vmat
0 -1.5000 10.6066 -2.1213 0.0000 0.7071 0.7071 0.34375 0.34375
0 1.5000 8.4853 0.0000 0.0000 0.7071 0.7071 0.34375 0.34375
0 1.5000 10.6066 -2.1213 0.0000 0.7071 0.7071 0.34375 0.34375
materials/mc/mob_arrow.vmat
0 -1.5000 6.3640 2.1213 0.0000 0.7071 -0.7071 0.40625 0.34375
0 -1.5000 8.4853 4.2426 0.0000 0.7071 -0.7071 0.40625 0.34375
0 1.5000 8.4853 4.2426 0.0000 0.7071 -0.7071 0.40625 0.34375
materials/mc/mob_arrow.vmat
0 -1.5000 6.3640 2.1213 0.0000 0.7071 -0.7071 0.40625 0.34375
0 1.5000 8.4853 4.2426 0.0000 0.7071 -0.7071 0.40625 0.34375
0 1.5000 6.3640 2.1213 0.0000 0.7071 -0.7071 0.40625 0.34375
materials/mc/mob_arrow.vmat
0 -1.5000 10.6066 2.1213 0.0000 -0.7071 -0.7071 0.40625 0.34375
0 1.5000 10.6066 2.1213 0.0000 -0.7071 -0.7071 0.40625 0.34375
0 1.5000 8.4853 4.2426 0.0000 -0.7071 -0.7071 0.40625 0.34375
materials/mc/mob_arrow.vmat
0 -1.5000 10.6066 2.1213 0.0000 -0.7071 -0.7071 0.40625 0.34375
0 1.5000 8.4853 4.2426 0.0000 -0.7071 -0.7071 0.40625 0.34375
0 -1.5000 8.4853 4.2426 0.0000 -0.7071 -0.7071 0.40625 0.34375
materials/mc/mob_arrow.vmat
0 -1.5000 16.9706 -4.2426 0.0000 -0.7071 0.7071 0.21875 0.28125
0 1.5000 16.9706 -4.2426 0.0000 -0.7071 0.7071 0.21875 0.28125
0 1.5000 19.0919 -2.1213 0.0000 -0.7071 0.7071 0.21875 0.28125
materials/mc/mob_arrow.vmat
0 -1.5000 16.9706 -4.2426 0.0000 -0.7071 0.7071 0.21875 0.28125
0 1.5000 19.0919 -2.1213 0.0000 -0.7071 0.7071 0.21875 0.28125
0 -1.5000 19.0919 -2.1213 0.0000 -0.7071 0.7071 0.21875 0.28125
materials/mc/mob_arrow.vmat
0 -1.5000 16.9706 -4.2426 0.0000 0.7071 0.7071 0.21875 0.28125
0 -1.5000 14.8492 -2.1213 0.0000 0.7071 0.7071 0.21875 0.28125
0 1.5000 14.8492 -2.1213 0.0000 0.7071 0.7071 0.21875 0.28125
materials/mc/mob_arrow.vmat
0 -1.5000 16.9706 -4.2426 0.0000 0.7071 0.7071 0.21875 0.28125
0 1.5000 14.8492 -2.1213 0.0000 0.7071 0.7071 0.21875 0.28125
0 1.5000 16.9706 -4.2426 0.0000 0.7071 0.7071 0.21875 0.28125
materials/mc/mob_arrow.vmat
0 -1.5000 14.8492 -2.1213 0.0000 0.7071 0.7071 0.28125 0.28125
0 -1.5000 12.7279 0.0000 0.0000 0.7071 0.7071 0.28125 0.28125
0 1.5000 12.7279 0.0000 0.0000 0.7071 0.7071 0.28125 0.28125
materials/mc/mob_arrow.vmat
0 -1.5000 14.8492 -2.1213 0.0000 0.7071 0.7071 0.28125 0.28125
0 1.5000 12.7279 0.0000 0.0000 0.7071 0.7071 0.28125 0.28125
0 1.5000 14.8492 -2.1213 0.0000 0.7071 0.7071 0.28125 0.28125
materials/mc/mob_arrow.vmat
0 -1.5000 10.6066 2.1213 0.0000 0.7071 -0.7071 0.34375 0.28125
0 -1.5000 12.7279 4.2426 0.0000 0.7071 -0.7071 0.34375 0.28125
0 1.5000 12.7279 4.2426 0.0000 0.7071 -0.7071 0.34375 0.28125
materials/mc/mob_arrow.vmat
0 -1.5000 10.6066 2.1213 0.0000 0.7071 -0.7071 0.34375 0.28125
0 1.5000 12.7279 4.2426 0.0000 0.7071 -0.7071 0.34375 0.28125
0 1.5000 10.6066 2.1213 0.0000 0.7071 -0.7071 0.34375 0.28125
materials/mc/mob_arrow.vmat
0 -1.5000 21.2132 -4.2426 0.0000 -0.7071 0.7071 0.15625 0.21875
0 1.5000 21.2132 -4.2426 0.0000 -0.7071 0.7071 0.15625 0.21875
0 1.5000 23.3345 -2.1213 0.0000 -0.7071 0.7071 0.15625 0.21875
materials/mc/mob_arrow.vmat
0 -1.5000 21.2132 -4.2426 0.0000 -0.7071 0.7071 0.15625 0.21875
0 1.5000 23.3345 -2.1213 0.0000 -0.7071 0.7071 0.15625 0.21875
0 -1.5000 23.3345 -2.1213 0.0000 -0.7071 0.7071 0.15625 0.21875
materials/mc/mob_arrow.vmat
0 -1.5000 21.2132 -4.2426 0.0000 0.7071 0.7071 0.15625 0.21875
0 -1.5000 19.0919 -2.1213 0.0000 0.7071 0.7071 0.15625 0.21875
0 1.5000 19.0919 -2.1213 0.0000 0.7071 0.7071 0.15625 0.21875
materials/mc/mob_arrow.vmat
0 -1.5000 21.2132 -4.2426 0.0000 0.7071 0.7071 0.15625 0.21875
0 1.5000 19.0919 -2.1213 0.0000 0.7071 0.7071 0.15625 0.21875
0 1.5000 21.2132 -4.2426 0.0000 0.7071 0.7071 0.15625 0.21875
materials/mc/mob_arrow.vmat
0 -1.5000 12.7279 4.2426 0.0000 0.7071 -0.7071 0.34375 0.21875
0 -1.5000 14.8492 6.3640 0.0000 0.7071 -0.7071 0.34375 0.21875
0 1.5000 14.8492 6.3640 0.0000 0.7071 -0.7071 0.34375 0.21875
materials/mc/mob_arrow.vmat
0 -1.5000 12.7279 4.2426 0.0000 0.7071 -0.7071 0.34375 0.21875
0 1.5000 14.8492 6.3640 0.0000 0.7071 -0.7071 0.34375 0.21875
0 1.5000 12.7279 4.2426 0.0000 0.7071 -0.7071 0.34375 0.21875
materials/mc/mob_arrow.vmat
0 -1.5000 16.9706 4.2426 0.0000 -0.7071 -0.7071 0.34375 0.21875
0 1.5000 16.9706 4.2426 0.0000 -0.7071 -0.7071 0.34375 0.21875
0 1.5000 14.8492 6.3640 0.0000 -0.7071 -0.7071 0.34375 0.21875
materials/mc/mob_arrow.vmat
0 -1.5000 16.9706 4.2426 0.0000 -0.7071 -0.7071 0.34375 0.21875
0 1.5000 14.8492 6.3640 0.0000 -0.7071 -0.7071 0.34375 0.21875
0 -1.5000 14.8492 6.3640 0.0000 -0.7071 -0.7071 0.34375 0.21875
materials/mc/mob_arrow.vmat
0 -1.5000 23.3345 -2.1213 0.0000 -0.7071 0.7071 0.15625 0.15625
0 1.5000 23.3345 -2.1213 0.0000 -0.7071 0.7071 0.15625 0.15625
0 1.5000 25.4558 0.0000 0.0000 -0.7071 0.7071 0.15625 0.15625
materials/mc/mob_arrow.vmat
0 -1.5000 23.3345 -2.1213 0.0000 -0.7071 0.7071 0.15625 0.15625
0 1.5000 25.4558 0.0000 0.0000 -0.7071 0.7071 0.15625 0.15625
0 -1.5000 25.4558 0.0000 0.0000 -0.7071 0.7071 0.15625 0.15625
materials/mc/mob_arrow.vmat
0 -1.5000 25.4558 0.0000 0.0000 -0.7071 -0.7071 0.15625 0.15625
0 1.5000 25.4558 0.0000 0.0000 -0.7071 -0.7071 0.15625 0.15625
0 1.5000 23.3345 2.1213 0.0000 -0.7071 -0.7071 0.15625 0.15625
materials/mc/mob_arrow.vmat
0 -1.5000 25.4558 0.0000 0.0000 -0.7071 -0.7071 0.15625 0.15625
0 1.5000 23.3345 2.1213 0.0000 -0.7071 -0.7071 0.15625 0.15625
0 -1.5000 23.3345 2.1213 0.0000 -0.7071 -0.7071 0.15625 0.15625
materials/mc/mob_arrow.vmat
0 -1.5000 16.9706 4.2426 0.0000 0.7071 -0.7071 0.28125 0.15625
0 -1.5000 19.0919 6.3640 0.0000 0.7071 -0.7071 0.28125 0.15625
0 1.5000 19.0919 6.3640 0.0000 0.7071 -0.7071 0.28125 0.15625
materials/mc/mob_arrow.vmat
0 -1.5000 16.9706 4.2426 0.0000 0.7071 -0.7071 0.28125 0.15625
0 1.5000 19.0919 6.3640 0.0000 0.7071 -0.7071 0.28125 0.15625
0 1.5000 16.9706 4.2426 0.0000 0.7071 -0.7071 0.28125 0.15625
materials/mc/mob_arrow.vmat
0 -1.5000 21.2132 4.2426 0.0000 -0.7071 -0.7071 0.28125 0.15625
0 1.5000 21.2132 4.2426 0.0000 -0.7071 -0.7071 0.28125 0.15625
0 1.5000 19.0919 6.3640 0.0000 -0.7071 -0.7071 0.28125 0.15625
materials/mc/mob_arrow.vmat
0 -1.5000 21.2132 4.2426 0.0000 -0.7071 -0.7071 0.28125 0.15625
0 1.5000 19.0919 6.3640 0.0000 -0.7071 -0.7071 0.28125 0.15625
0 -1.5000 19.0919 6.3640 0.0000 -0.7071 -0.7071 0.28125 0.15625
materials/mc/mob_arrow.vmat
0 -1.5000 23.3345 2.1213 0.0000 -0.7071 0.7071 0.21875 0.09375
0 1.5000 23.3345 2.1213 0.0000 -0.7071 0.7071 0.21875 0.09375
0 1.5000 25.4558 4.2426 0.0000 -0.7071 0.7071 0.21875 0.09375
materials/mc/mob_arrow.vmat
0 -1.5000 23.3345 2.1213 0.0000 -0.7071 0.7071 0.21875 0.09375
0 1.5000 25.4558 4.2426 0.0000 -0.7071 0.7071 0.21875 0.09375
0 -1.5000 25.4558 4.2426 0.0000 -0.7071 0.7071 0.21875 0.09375
materials/mc/mob_arrow.vmat
0 -1.5000 21.2132 4.2426 0.0000 0.7071 -0.7071 0.21875 0.09375
0 -1.5000 23.3345 6.3640 0.0000 0.7071 -0.7071 0.21875 0.09375
0 1.5000 23.3345 6.3640 0.0000 0.7071 -0.7071 0.21875 0.09375
materials/mc/mob_arrow.vmat
0 -1.5000 21.2132 4.2426 0.0000 0.7071 -0.7071 0.21875 0.09375
0 1.5000 23.3345 6.3640 0.0000 0.7071 -0.7071 0.21875 0.09375
0 1.5000 21.2132 4.2426 0.0000 0.7071 -0.7071 0.21875 0.09375
materials/mc/mob_arrow.vmat
0 -1.5000 25.4558 4.2426 0.0000 -0.7071 -0.7071 0.21875 0.09375
0 1.5000 25.4558 4.2426 0.0000 -0.7071 -0.7071 0.21875 0.09375
0 1.5000 23.3345 6.3640 0.0000 -0.7071 -0.7071 0.21875 0.09375
materials/mc/mob_arrow.vmat
0 -1.5000 25.4558 4.2426 0.0000 -0.7071 -0.7071 0.21875 0.09375
0 1.5000 23.3345 6.3640 0.0000 -0.7071 -0.7071 0.21875 0.09375
0 -1.5000 23.3345 6.3640 0.0000 -0.7071 -0.7071 0.21875 0.09375
end
