v -24.000 204.000 24.000
v -24.000 204.000 -24.000
v -24.000 144.000 -24.000
v -24.000 144.000 24.000
v 24.000 204.000 -24.000
v 24.000 204.000 24.000
v 24.000 144.000 24.000
v 24.000 144.000 -24.000
v -24.000 204.000 24.000
v 24.000 204.000 24.000
v 24.000 204.000 -24.000
v -24.000 204.000 -24.000
v -24.000 144.000 -24.000
v 24.000 144.000 -24.000
v 24.000 144.000 24.000
v -24.000 144.000 24.000
v -24.000 204.000 -24.000
v 24.000 204.000 -24.000
v 24.000 144.000 -24.000
v -24.000 144.000 -24.000
v 24.000 204.000 24.000
v -24.000 204.000 24.000
v -24.000 144.000 24.000
v 24.000 144.000 24.000
v -27.060 207.060 27.060
v -27.060 207.060 -27.060
v -27.060 140.940 -27.060
v -27.060 140.940 27.060
v 27.060 207.060 -27.060
v 27.060 207.060 27.060
v 27.060 140.940 27.060
v 27.060 140.940 -27.060
v -27.060 207.060 27.060
v 27.060 207.060 27.060
v 27.060 207.060 -27.060
v -27.060 207.060 -27.060
v -27.060 140.940 -27.060
v 27.060 140.940 -27.060
v 27.060 140.940 27.060
v -27.060 140.940 27.060
v -27.060 207.060 -27.060
v 27.060 207.060 -27.060
v 27.060 140.940 -27.060
v -27.060 140.940 -27.060
v 27.060 207.060 27.060
v -27.060 207.060 27.060
v -27.060 140.940 27.060
v 27.060 140.940 27.060
v -6.000 162.000 -24.000
v -6.000 162.000 -36.000
v -6.000 138.000 -36.000
v -6.000 138.000 -24.000
v 6.000 162.000 -36.000
v 6.000 162.000 -24.000
v 6.000 138.000 -24.000
v 6.000 138.000 -36.000
v -6.000 162.000 -24.000
v 6.000 162.000 -24.000
v 6.000 162.000 -36.000
v -6.000 162.000 -36.000
v -6.000 138.000 -36.000
v 6.000 138.000 -36.000
v 6.000 138.000 -24.000
v -6.000 138.000 -24.000
v -6.000 162.000 -36.000
v 6.000 162.000 -36.000
v 6.000 138.000 -36.000
v -6.000 138.000 -36.000
v 6.000 162.000 -24.000
v -6.000 162.000 -24.000
v -6.000 138.000 -24.000
v 6.000 138.000 -24.000
v -24.000 144.000 18.000
v -24.000 144.000 -18.000
v -24.000 72.000 -18.000
v -24.000 72.000 18.000
v 24.000 144.000 -18.000
v 24.000 144.000 18.000
v 24.000 72.000 18.000
v 24.000 72.000 -18.000
v -24.000 144.000 18.000
v 24.000 144.000 18.000
v 24.000 144.000 -18.000
v -24.000 144.000 -18.000
v -24.000 72.000 -18.000
v 24.000 72.000 -18.000
v 24.000 72.000 18.000
v -24.000 72.000 18.000
v -24.000 144.000 -18.000
v 24.000 144.000 -18.000
v 24.000 72.000 -18.000
v -24.000 72.000 -18.000
v 24.000 144.000 18.000
v -24.000 144.000 18.000
v -24.000 72.000 18.000
v 24.000 72.000 18.000
v -27.000 147.000 21.000
v -27.000 147.000 -21.000
v -27.000 21.000 -21.000
v -27.000 21.000 21.000
v 27.000 147.000 -21.000
v 27.000 147.000 21.000
v 27.000 21.000 21.000
v 27.000 21.000 -21.000
v -27.000 147.000 21.000
v 27.000 147.000 21.000
v 27.000 147.000 -21.000
v -27.000 147.000 -21.000
v -27.000 21.000 -21.000
v 27.000 21.000 -21.000
v 27.000 21.000 21.000
v -27.000 21.000 21.000
v -27.000 147.000 -21.000
v 27.000 147.000 -21.000
v 27.000 21.000 -21.000
v -27.000 21.000 -21.000
v 27.000 147.000 21.000
v -27.000 147.000 21.000
v -27.000 21.000 21.000
v 27.000 21.000 21.000
v 24.000 126.601 10.960
v 24.000 142.960 -6.601
v 24.000 107.839 -39.319
v 24.000 91.480 -21.759
v 48.000 142.960 -6.601
v 48.000 126.601 10.960
v 48.000 91.480 -21.759
v 48.000 107.839 -39.319
v 24.000 126.601 10.960
v 48.000 126.601 10.960
v 48.000 142.960 -6.601
v 24.000 142.960 -6.601
v 24.000 107.839 -39.319
v 48.000 107.839 -39.319
v 48.000 91.480 -21.759
v 24.000 91.480 -21.759
v 24.000 142.960 -6.601
v 48.000 142.960 -6.601
v 48.000 107.839 -39.319
v 24.000 107.839 -39.319
v 48.000 126.601 10.960
v 24.000 126.601 10.960
v 24.000 91.480 -21.759
v 48.000 91.480 -21.759
v -48.000 126.601 10.960
v -48.000 142.960 -6.601
v -48.000 107.839 -39.319
v -48.000 91.480 -21.759
v -24.000 142.960 -6.601
v -24.000 126.601 10.960
v -24.000 91.480 -21.759
v -24.000 107.839 -39.319
v -48.000 126.601 10.960
v -24.000 126.601 10.960
v -24.000 142.960 -6.601
v -48.000 142.960 -6.601
v -48.000 107.839 -39.319
v -24.000 107.839 -39.319
v -24.000 91.480 -21.759
v -48.000 91.480 -21.759
v -48.000 142.960 -6.601
v -24.000 142.960 -6.601
v -24.000 107.839 -39.319
v -48.000 107.839 -39.319
v -24.000 126.601 10.960
v -48.000 126.601 10.960
v -48.000 91.480 -21.759
v -24.000 91.480 -21.759
v -24.000 109.040 -5.399
v -24.000 125.399 -22.960
v -24.000 107.839 -39.319
v -24.000 91.480 -21.759
v 24.000 125.399 -22.960
v 24.000 109.040 -5.399
v 24.000 91.480 -21.759
v 24.000 107.839 -39.319
v -24.000 109.040 -5.399
v 24.000 109.040 -5.399
v 24.000 125.399 -22.960
v -24.000 125.399 -22.960
v -24.000 107.839 -39.319
v 24.000 107.839 -39.319
v 24.000 91.480 -21.759
v -24.000 91.480 -21.759
v -24.000 125.399 -22.960
v 24.000 125.399 -22.960
v 24.000 107.839 -39.319
v -24.000 107.839 -39.319
v 24.000 109.040 -5.399
v -24.000 109.040 -5.399
v -24.000 91.480 -21.759
v 24.000 91.480 -21.759
v 0.000 72.000 12.000
v 0.000 72.000 -12.000
v 0.000 0.000 -12.000
v 0.000 0.000 12.000
v 24.000 72.000 -12.000
v 24.000 72.000 12.000
v 24.000 0.000 12.000
v 24.000 0.000 -12.000
v 0.000 72.000 12.000
v 24.000 72.000 12.000
v 24.000 72.000 -12.000
v 0.000 72.000 -12.000
v 0.000 0.000 -12.000
v 24.000 0.000 -12.000
v 24.000 0.000 12.000
v 0.000 0.000 12.000
v 0.000 72.000 -12.000
v 24.000 72.000 -12.000
v 24.000 0.000 -12.000
v 0.000 0.000 -12.000
v 24.000 72.000 12.000
v 0.000 72.000 12.000
v 0.000 0.000 12.000
v 24.000 0.000 12.000
v -24.000 72.000 12.000
v -24.000 72.000 -12.000
v -24.000 0.000 -12.000
v -24.000 0.000 12.000
v 0.000 72.000 -12.000
v 0.000 72.000 12.000
v 0.000 0.000 12.000
v 0.000 0.000 -12.000
v -24.000 72.000 12.000
v 0.000 72.000 12.000
v 0.000 72.000 -12.000
v -24.000 72.000 -12.000
v -24.000 0.000 -12.000
v 0.000 0.000 -12.000
v 0.000 0.000 12.000
v -24.000 0.000 12.000
v -24.000 72.000 -12.000
v 0.000 72.000 -12.000
v 0.000 0.000 -12.000
v -24.000 0.000 -12.000
v 0.000 72.000 12.000
v -24.000 72.000 12.000
v -24.000 0.000 12.000
v 0.000 0.000 12.000
vt 0.37500 0.87500
vt 0.25000 0.87500
vt 0.25000 0.71875
vt 0.37500 0.71875
vt 0.12500 0.87500
vt 0.00000 0.87500
vt 0.00000 0.71875
vt 0.12500 0.71875
vt 0.25000 1.00000
vt 0.12500 1.00000
vt 0.12500 0.87500
vt 0.25000 0.87500
vt 0.37500 0.87500
vt 0.25000 0.87500
vt 0.25000 1.00000
vt 0.37500 1.00000
vt 0.25000 0.87500
vt 0.12500 0.87500
vt 0.12500 0.71875
vt 0.25000 0.71875
vt 0.50000 0.87500
vt 0.37500 0.87500
vt 0.37500 0.71875
vt 0.50000 0.71875
vt 0.87500 0.87500
vt 0.75000 0.87500
vt 0.75000 0.71875
vt 0.87500 0.71875
vt 0.62500 0.87500
vt 0.50000 0.87500
vt 0.50000 0.71875
vt 0.62500 0.71875
vt 0.75000 1.00000
vt 0.62500 1.00000
vt 0.62500 0.87500
vt 0.75000 0.87500
vt 0.87500 0.87500
vt 0.75000 0.87500
vt 0.75000 1.00000
vt 0.87500 1.00000
vt 0.75000 0.87500
vt 0.62500 0.87500
vt 0.62500 0.71875
vt 0.75000 0.71875
vt 1.00000 0.87500
vt 0.87500 0.87500
vt 0.87500 0.71875
vt 1.00000 0.71875
vt 0.46875 0.96875
vt 0.43750 0.96875
vt 0.43750 0.90625
vt 0.46875 0.90625
vt 0.40625 0.96875
vt 0.37500 0.96875
vt 0.37500 0.90625
vt 0.40625 0.90625
vt 0.43750 1.00000
vt 0.40625 1.00000
vt 0.40625 0.96875
vt 0.43750 0.96875
vt 0.46875 0.96875
vt 0.43750 0.96875
vt 0.43750 1.00000
vt 0.46875 1.00000
vt 0.43750 0.96875
vt 0.40625 0.96875
vt 0.40625 0.90625
vt 0.43750 0.90625
vt 0.50000 0.96875
vt 0.46875 0.96875
vt 0.46875 0.90625
vt 0.50000 0.90625
vt 0.56250 0.59375
vt 0.46875 0.59375
vt 0.46875 0.40625
vt 0.56250 0.40625
vt 0.34375 0.59375
vt 0.25000 0.59375
vt 0.25000 0.40625
vt 0.34375 0.40625
vt 0.46875 0.68750
vt 0.34375 0.68750
vt 0.34375 0.59375
vt 0.46875 0.59375
vt 0.59375 0.59375
vt 0.46875 0.59375
vt 0.46875 0.68750
vt 0.59375 0.68750
vt 0.46875 0.59375
vt 0.34375 0.59375
vt 0.34375 0.40625
vt 0.46875 0.40625
vt 0.68750 0.59375
vt 0.56250 0.59375
vt 0.56250 0.40625
vt 0.68750 0.40625
vt 0.31250 0.31250
vt 0.21875 0.31250
vt 0.21875 0.00000
vt 0.31250 0.00000
vt 0.09375 0.31250
vt 0.00000 0.31250
vt 0.00000 0.00000
vt 0.09375 0.00000
vt 0.21875 0.40625
vt 0.09375 0.40625
vt 0.09375 0.31250
vt 0.21875 0.31250
vt 0.34375 0.31250
vt 0.21875 0.31250
vt 0.21875 0.40625
vt 0.34375 0.40625
vt 0.21875 0.31250
vt 0.09375 0.31250
vt 0.09375 0.00000
vt 0.21875 0.00000
vt 0.43750 0.31250
vt 0.31250 0.31250
vt 0.31250 0.00000
vt 0.43750 0.00000
vt 0.87500 0.59375
vt 0.81250 0.59375
vt 0.81250 0.46875
vt 0.87500 0.46875
vt 0.75000 0.59375
vt 0.68750 0.59375
vt 0.68750 0.46875
vt 0.75000 0.46875
vt 0.81250 0.65625
vt 0.75000 0.65625
vt 0.75000 0.59375
vt 0.81250 0.59375
vt 0.87500 0.59375
vt 0.81250 0.59375
vt 0.81250 0.65625
vt 0.87500 0.65625
vt 0.81250 0.59375
vt 0.75000 0.59375
vt 0.75000 0.46875
vt 0.81250 0.46875
vt 0.93750 0.59375
vt 0.87500 0.59375
vt 0.87500 0.46875
vt 0.93750 0.46875
vt 0.87500 0.59375
vt 0.81250 0.59375
vt 0.81250 0.46875
vt 0.87500 0.46875
vt 0.75000 0.59375
vt 0.68750 0.59375
vt 0.68750 0.46875
vt 0.75000 0.46875
vt 0.81250 0.65625
vt 0.75000 0.65625
vt 0.75000 0.59375
vt 0.81250 0.59375
vt 0.87500 0.59375
vt 0.81250 0.59375
vt 0.81250 0.65625
vt 0.87500 0.65625
vt 0.81250 0.59375
vt 0.75000 0.59375
vt 0.75000 0.46875
vt 0.81250 0.46875
vt 0.93750 0.59375
vt 0.87500 0.59375
vt 0.87500 0.46875
vt 0.93750 0.46875
vt 0.87500 0.34375
vt 0.81250 0.34375
vt 0.81250 0.28125
vt 0.87500 0.28125
vt 0.68750 0.34375
vt 0.62500 0.34375
vt 0.62500 0.28125
vt 0.68750 0.28125
vt 0.81250 0.40625
vt 0.68750 0.40625
vt 0.68750 0.34375
vt 0.81250 0.34375
vt 0.93750 0.34375
vt 0.81250 0.34375
vt 0.81250 0.40625
vt 0.93750 0.40625
vt 0.81250 0.34375
vt 0.68750 0.34375
vt 0.68750 0.28125
vt 0.81250 0.28125
vt 1.00000 0.34375
vt 0.87500 0.34375
vt 0.87500 0.28125
vt 1.00000 0.28125
vt 0.18750 0.59375
vt 0.12500 0.59375
vt 0.12500 0.40625
vt 0.18750 0.40625
vt 0.06250 0.59375
vt 0.00000 0.59375
vt 0.00000 0.40625
vt 0.06250 0.40625
vt 0.12500 0.65625
vt 0.06250 0.65625
vt 0.06250 0.59375
vt 0.12500 0.59375
vt 0.18750 0.59375
vt 0.12500 0.59375
vt 0.12500 0.65625
vt 0.18750 0.65625
vt 0.12500 0.59375
vt 0.06250 0.59375
vt 0.06250 0.40625
vt 0.12500 0.40625
vt 0.25000 0.59375
vt 0.18750 0.59375
vt 0.18750 0.40625
vt 0.25000 0.40625
vt 0.18750 0.59375
vt 0.12500 0.59375
vt 0.12500 0.40625
vt 0.18750 0.40625
vt 0.06250 0.59375
vt 0.00000 0.59375
vt 0.00000 0.40625
vt 0.06250 0.40625
vt 0.12500 0.65625
vt 0.06250 0.65625
vt 0.06250 0.59375
vt 0.12500 0.59375
vt 0.18750 0.59375
vt 0.12500 0.59375
vt 0.12500 0.65625
vt 0.18750 0.65625
vt 0.12500 0.59375
vt 0.06250 0.59375
vt 0.06250 0.40625
vt 0.12500 0.40625
vt 0.25000 0.59375
vt 0.18750 0.59375
vt 0.18750 0.40625
vt 0.25000 0.40625
usemtl villager
f 1/1 2/2 3/3 4/4
f 5/5 6/6 7/7 8/8
f 9/9 10/10 11/11 12/12
f 13/13 14/14 15/15 16/16
f 17/17 18/18 19/19 20/20
f 21/21 22/22 23/23 24/24
f 25/25 26/26 27/27 28/28
f 29/29 30/30 31/31 32/32
f 33/33 34/34 35/35 36/36
f 37/37 38/38 39/39 40/40
f 41/41 42/42 43/43 44/44
f 45/45 46/46 47/47 48/48
f 49/49 50/50 51/51 52/52
f 53/53 54/54 55/55 56/56
f 57/57 58/58 59/59 60/60
f 61/61 62/62 63/63 64/64
f 65/65 66/66 67/67 68/68
f 69/69 70/70 71/71 72/72
f 73/73 74/74 75/75 76/76
f 77/77 78/78 79/79 80/80
f 81/81 82/82 83/83 84/84
f 85/85 86/86 87/87 88/88
f 89/89 90/90 91/91 92/92
f 93/93 94/94 95/95 96/96
f 97/97 98/98 99/99 100/100
f 101/101 102/102 103/103 104/104
f 105/105 106/106 107/107 108/108
f 109/109 110/110 111/111 112/112
f 113/113 114/114 115/115 116/116
f 117/117 118/118 119/119 120/120
f 121/121 122/122 123/123 124/124
f 125/125 126/126 127/127 128/128
f 129/129 130/130 131/131 132/132
f 133/133 134/134 135/135 136/136
f 137/137 138/138 139/139 140/140
f 141/141 142/142 143/143 144/144
f 145/145 146/146 147/147 148/148
f 149/149 150/150 151/151 152/152
f 153/153 154/154 155/155 156/156
f 157/157 158/158 159/159 160/160
f 161/161 162/162 163/163 164/164
f 165/165 166/166 167/167 168/168
f 169/169 170/170 171/171 172/172
f 173/173 174/174 175/175 176/176
f 177/177 178/178 179/179 180/180
f 181/181 182/182 183/183 184/184
f 185/185 186/186 187/187 188/188
f 189/189 190/190 191/191 192/192
f 193/193 194/194 195/195 196/196
f 197/197 198/198 199/199 200/200
f 201/201 202/202 203/203 204/204
f 205/205 206/206 207/207 208/208
f 209/209 210/210 211/211 212/212
f 213/213 214/214 215/215 216/216
f 217/217 218/218 219/219 220/220
f 221/221 222/222 223/223 224/224
f 225/225 226/226 227/227 228/228
f 229/229 230/230 231/231 232/232
f 233/233 234/234 235/235 236/236
f 237/237 238/238 239/239 240/240
